<svg xmlns="http://www.w3.org/2000/svg" width="21.603" height="13" viewBox="0 0 21.603 13">
    <defs>
        <style>
            .cls-1{fill:#271c3f}
        </style>
    </defs>
    <g id="_0tubnA" transform="translate(-3629.024 -4063.951)">
        <g id="Group_1552" transform="translate(3629.024 4063.951)">
            <path id="Path_1035" d="M3629.135 4071.424c.232.192.364.3.493.41l8.854 7.542a1.812 1.812 0 0 0 2.675.007l8.854-7.542c.13-.112.264-.221.489-.409a6.39 6.39 0 0 1 .121.83q.01 4.9 0 9.8a1.521 1.521 0 0 1-1.675 1.634q-5.019.013-10.039.008-4.054 0-8.108-.007c-1.226 0-1.78-.58-1.779-1.819v-9.508a9.035 9.035 0 0 1 .115-.946z" class="cls-1" transform="translate(-3629.024 -4070.703)"/>
            <path id="Path_1036" d="M3638.639 4063.951h19.721c-.209.2-.315.3-.428.4l-8.772 7.486c-.541.462-.9.479-1.4.049q-4.444-3.787-8.885-7.577a2.329 2.329 0 0 0-.324-.194z" class="cls-1" transform="translate(-3637.628 -4063.951)"/>
        </g>
    </g>
</svg>
