<svg xmlns="http://www.w3.org/2000/svg" width="15.178" height="16.513" viewBox="0 0 15.178 16.513">
    <g>
        <g>
            <path fill="#271c3f" d="M2879.91 3595.725a12.285 12.285 0 0 1-6.247-2.33 13.826 13.826 0 0 1-5.911-10.895 3.373 3.373 0 0 1 2.18-3.212 1.89 1.89 0 0 1 2.171.917 30.786 30.786 0 0 1 .786 3.275 1.028 1.028 0 0 1-.247.7 7.8 7.8 0 0 1-.855.887c-.473.449-.548.577-.213 1.143a15.879 15.879 0 0 0 1.787 2.69 29.608 29.608 0 0 0 2.851 2.484.669.669 0 0 0 .977-.062c1.373-1.191 1.38-1.189 3.088-.61.475.161.933.372 1.406.539a1.9 1.9 0 0 1 1.238 1.76 1.214 1.214 0 0 1-.245.886 14.07 14.07 0 0 1-1.777 1.548 2.988 2.988 0 0 1-.989.28z" transform="translate(-2867.748 -3579.212) translate(2867.748 3579.212) translate(-2867.748 -3579.212)"/>
        </g>
    </g>
</svg>
