<svg xmlns="http://www.w3.org/2000/svg" width="24.238" height="20.111" viewBox="0 0 24.238 20.111">
    <g>
        <path fill="#f8b28e" d="M-134.932 1787.193a5.91 5.91 0 0 1-.6.87q-4.155 4.184-8.333 8.344a1.406 1.406 0 0 1-2.273-.006c-1.288-1.183-1.264-1.87-.017-3.051 1.394-1.32 2.724-2.708 4.08-4.067.121-.122.234-.253.434-.47h-.672c-5.043 0-10.087-.012-15.131.012a1.674 1.674 0 0 1-1.724-.985v-1.724a1.633 1.633 0 0 1 1.758-1.092c5.044.022 10.088.011 15.132.011h.679c-.2-.213-.319-.356-.452-.489q-2.248-2.246-4.5-4.489a1.363 1.363 0 0 1-.01-2.189c1.141-1.244 1.78-1.4 3.121-.021 2.587 2.667 5.247 5.263 7.864 7.9a6.552 6.552 0 0 1 .642.907z" transform="translate(159.17 -1776.871)"/>
    </g>
</svg>
