<svg xmlns="http://www.w3.org/2000/svg" width="22.545" height="18.317" viewBox="0 0 22.545 18.317">
    <path fill="#e6e2ef" d="M14.117 18.317H8.428C2.836 18.317 0 15.45 0 9.8V5.964C0 2.006 1.985 0 5.9 0h10.745c3.915 0 5.9 2.006 5.9 5.964V9.8c0 5.65-2.836 8.517-8.428 8.517zM4.167 4.228a1.087 1.087 0 0 0-.929.661 1.078 1.078 0 0 0 .434 1.648l5.941 3.673a3.271 3.271 0 0 0 1.659.489 3.27 3.27 0 0 0 1.659-.489l5.941-3.673a1.078 1.078 0 0 0 .434-1.648 1.087 1.087 0 0 0-.929-.661 1.39 1.39 0 0 0-.691.219l-5.727 3.542a1.353 1.353 0 0 1-1.373 0L4.858 4.447a1.389 1.389 0 0 0-.691-.219z"/>
</svg>
