<svg xmlns="http://www.w3.org/2000/svg" width="19.511" height="17" viewBox="0 0 19.511 17">
    <defs>
        <style>
            .cls-1{fill:#271c3f}
        </style>
    </defs>
    <g id="gosFMt" transform="translate(-3192.5 -3786.454)">
        <g id="Group_1550" transform="translate(3192.5 3786.454)">
            <path id="Path_1032" d="M3247.171 3792.789v1.041l-.128.584a6.408 6.408 0 0 1-2.5 3.826.619.619 0 0 0-.306.655 13.392 13.392 0 0 0 .4 1.58c.127.359.254.682-.025 1.009a.8.8 0 0 1-.995.173c-.932-.412-1.867-.827-2.761-1.314a2.466 2.466 0 0 0-1.379-.344 8.757 8.757 0 0 1-5.5-1.495 6.088 6.088 0 0 1-.152-10.381 8.863 8.863 0 0 1 7.877-1.264 7.234 7.234 0 0 1 4.975 4.15 12.755 12.755 0 0 1 .494 1.78zm-5.869 1.478a1.18 1.18 0 0 0 1.183-1.178 1.206 1.206 0 1 0-2.412 0 1.189 1.189 0 0 0 1.227 1.177zm-3.22-1.191a1.2 1.2 0 1 0-2.392-.018 1.174 1.174 0 0 0 1.19 1.209 1.158 1.158 0 0 0 1.201-1.192z" class="cls-1" transform="translate(-3227.66 -3786.454)"/>
            <path id="Path_1033" d="M3192.5 3837.086a5.871 5.871 0 0 1 1.554-3.213c.457-.462.978-.861 1.47-1.289l.092.093a13.979 13.979 0 0 0-.5 1.536 6.417 6.417 0 0 0 2.258 6.441 9.168 9.168 0 0 0 6.212 2.235h.629a5.974 5.974 0 0 1-2.375.861c-.911.108-1.836.081-2.755.131a1.32 1.32 0 0 0-.516.155c-.921.476-1.834.965-2.753 1.444a.883.883 0 0 1-.33.1 5.305 5.305 0 0 1-.536-.008 4.3 4.3 0 0 1 .074-.557c.117-.444.288-.876.376-1.325a1.359 1.359 0 0 0-.567-1.526 5.473 5.473 0 0 1-2.275-3.789.745.745 0 0 0-.062-.16z" class="cls-1" transform="translate(-3192.5 -3828.584)"/>
        </g>
    </g>
</svg>
