<svg xmlns="http://www.w3.org/2000/svg" id="Group_2198" width="50.359" height="53.193" viewBox="0 0 50.359 53.193">
    <defs>
        <clipPath id="clip-path">
            <path id="Rectangle_1155" d="M0 0H50.359V53.193H0z" class="cls-1"/>
        </clipPath>
        <style>
            .cls-1{fill:#f8b28e}
        </style>
    </defs>
    <g id="Group_2197" clip-path="url(#clip-path)">
        <path id="Path_3199" d="M45.322 51.611l-2.9.2q-5.185.352-10.369.7l-10.079.68c-.188.013-.275-.026-.326-.206-.52-1.843-1.124-3.666-1.537-5.532-.248-1.118-.608-1.549-2-1.689a11.644 11.644 0 0 0-3.126.283 38.376 38.376 0 0 1-5.829.708 5.616 5.616 0 0 1-3.429-.9 2.135 2.135 0 0 1-.96-2.275c.2-1.182.358-2.373.506-3.564a1.8 1.8 0 0 0-.091-.829 2.227 2.227 0 0 0-.475-.664c-.181-.2-.426-.339-.6-.54a.965.965 0 0 1 .155-1.522c.126-.1.264-.185.411-.287-.34-.175-.673-.339-1-.516a2.725 2.725 0 0 1-.4-.273.724.724 0 0 1-.217-1.078 8.6 8.6 0 0 1 .521-.783 1.126 1.126 0 0 0-.126-1.724 15.82 15.82 0 0 0-1.793-1.269c-.269-.179-.575-.3-.853-.468a1.424 1.424 0 0 1-.6-2.028 6.92 6.92 0 0 1 1.778-2.041A11.609 11.609 0 0 0 5.464 20.8a8.17 8.17 0 0 0 .193-2.8 18.419 18.419 0 0 1 .377-5.229A12.32 12.32 0 0 1 9.239 7.1a21.494 21.494 0 0 1 5.72-4.007A28.053 28.053 0 0 1 21.513.656 24.113 24.113 0 0 1 30.319.22 26.892 26.892 0 0 1 43.5 5.79a17.354 17.354 0 0 1 6.776 12.31 17.013 17.013 0 0 1-1.025 7.689 19.244 19.244 0 0 1-3.875 6.29 16.548 16.548 0 0 0-3.13 4.67 8.509 8.509 0 0 0-.259 5.974c.532 1.711 1.2 3.38 1.839 5.058.459 1.214.959 2.413 1.439 3.619a1.986 1.986 0 0 1 .056.213M28 17.8a5.077 5.077 0 0 1 1.144-2.131.281.281 0 0 0 .05-.223 2.281 2.281 0 0 0-2.666-1.671 4.129 4.129 0 0 0-.9.273 5.688 5.688 0 0 1-2.069.5.276.276 0 0 0-.287.235 6.01 6.01 0 0 1-3.549 3.78 1.463 1.463 0 0 0-.335.187 3.125 3.125 0 0 1-1.708.73 16.889 16.889 0 0 1-2-.009 1.419 1.419 0 0 0-1.7 1.291c0 .019-.023.034-.043.063l-1.347-.345c.136-.328.242-.621.376-.9a2.259 2.259 0 0 1 2.341-1.453c.486.034.973.066 1.46.075a2.624 2.624 0 0 0 1.377-.257 3.057 3.057 0 0 0-2.257-2.045c-.094-.017-.248-.1-.251-.162-.022-.406-.012-.813-.012-1.24a4.583 4.583 0 0 1 3.81 2.674 3.95 3.95 0 0 0 2.208-1.991c.591-1.217.647-1.009-.357-2.026a10.218 10.218 0 0 0-1.306-.966l.393-1.241a5.163 5.163 0 0 1 2.567 1.967.377.377 0 0 0 .444.214c.6-.136 1.2-.276 1.8-.4a14.812 14.812 0 0 1 1.587-.294.519.519 0 0 0 .472-.294 5.335 5.335 0 0 0 .66-2.067l1.5.239c-.112.447-.183.852-.317 1.237s-.329.746-.5 1.133c.019.013.052.038.088.058a3.658 3.658 0 0 1 1.775 2.029.248.248 0 0 0 .173.145c.654.01 1.309.007 1.967.007.029-1.385.574-2.426 1.477-2.737l.736 1.139a2.028 2.028 0 0 0-.723 1.685c.024.213.095.356.339.394a3.634 3.634 0 0 1 .687.192 5.1 5.1 0 0 1 3.137 2.551.324.324 0 0 0 .269.123 3.009 3.009 0 0 0 1.606-.72c.3-.255.581-.54.882-.823l1.155.807a6.867 6.867 0 0 1-3.541 2.255 10.747 10.747 0 0 1-.717 4 4.1 4.1 0 0 1 2.484 2.856l-1.357.4c-.092-.186-.162-.344-.245-.495a2.613 2.613 0 0 0-1.341-1.264.361.361 0 0 0-.429.091c-.755.682-1.513 1.361-2.29 2.018a2.164 2.164 0 0 0-.782 1.126 7.448 7.448 0 0 0-.241 1.529c-.044 1.7-.043 3.4-.059 5.1v1.114h2.562c.006-.067.014-.119.015-.17a6.3 6.3 0 0 1 3.242-5.435 14.2 14.2 0 0 0 1.9-1.347 6.088 6.088 0 0 0 2.1-3.744 1.8 1.8 0 0 1 .368-.8 12.088 12.088 0 0 0 1.02-1.615 4.4 4.4 0 0 0-.4-5.027.6.6 0 0 1-.1-.325c-.03-.573-.024-1.149-.075-1.72a8.984 8.984 0 0 0-.974-3.643 2.793 2.793 0 0 0-2.237-1.578.425.425 0 0 1-.4-.293 6.286 6.286 0 0 0-3.116-3.219 6.551 6.551 0 0 0-3.883-.4.677.677 0 0 1-.384-.077c-.7-.355-1.385-.761-2.106-1.075a5.274 5.274 0 0 0-2.439-.45 3.5 3.5 0 0 0-2.663 1.436c-.039.007-.05.012-.059.009l-.365-.134a8.047 8.047 0 0 0-3.463-.556 3.673 3.673 0 0 0-3.11 1.886.5.5 0 0 1-.554.3 6.681 6.681 0 0 0-3.048.508 4.53 4.53 0 0 0-2.779 3.652.617.617 0 0 1-.453.569 2.829 2.829 0 0 0-.786.447A6.468 6.468 0 0 0 9.161 19.8a4.636 4.636 0 0 0 3.2 3.7 9.67 9.67 0 0 0 6.247.19 1.02 1.02 0 0 1 1.058.124 2.049 2.049 0 0 0 .607.3 6.956 6.956 0 0 0 4.556.048.683.683 0 0 1 .371-.02 11.173 11.173 0 0 1 3.189 1.572 3.642 3.642 0 0 1 1.654 3.254c-.067 2.306-.019 4.616-.019 6.924v.417h2.355v-.506c-.018-2.1-.026-4.2-.058-6.3a3.826 3.826 0 0 1 1.489-3.169c.494-.4 1.014-.783 1.472-1.225a6.7 6.7 0 0 0 1.86-5.443 2.65 2.65 0 0 0-1.748-2.412 11.905 11.905 0 0 0-1.279-.467 8.557 8.557 0 0 0-3.317-.495 1.285 1.285 0 0 0-.935.515 3.049 3.049 0 0 0-.615 2.54 21.384 21.384 0 0 0 .625 2.091l-.973.762a6.764 6.764 0 0 1-1.1-2.964 3.629 3.629 0 0 0-3.247.95l-1.124-.652A5.078 5.078 0 0 1 28 17.8" class="cls-1"/>
    </g>
</svg>
