<svg xmlns="http://www.w3.org/2000/svg" id="Group_2265" width="73.766" height="55.365" viewBox="0 0 73.766 55.365">
    <defs>
        <clipPath id="clip-path">
            <path id="Rectangle_1178" d="M0 0H73.766V55.365H0z" class="cls-1"/>
        </clipPath>
        <style>
            .cls-1{fill:#f8b28e}
        </style>
    </defs>
    <g id="Group_2264" clip-path="url(#clip-path)">
        <path id="Path_3234" d="M0 20.2a2.771 2.771 0 0 1 2.969-1.748 48.138 48.138 0 0 1 11.341 1.313c.253.066.5.148.76.226l-.944 4.542a36.078 36.078 0 0 0-9.435-1.409c.33 6.567 2.2 12.493 6.442 17.574 4.477 5.368 10.386 8.042 17.11 9.245-1.4-1.58-2.852-3.048-4.1-4.67a26.292 26.292 0 0 1-5.664-17.715A29.921 29.921 0 0 1 24.01 11.81 44.477 44.477 0 0 1 35.487.5a2.2 2.2 0 0 1 2.691-.072c6.44 4.488 11.72 9.99 14.844 17.311 4.725 11.075 2.167 22.8-6.788 31.353a5.447 5.447 0 0 0-.722.785c6.406-1.093 12.1-3.543 16.526-8.489 4.64-5.188 6.689-11.348 7.062-18.341-1.667.162-3.243.25-4.8.483s-3.091.609-4.663.928l-.943-4.529a36.6 36.6 0 0 1 4.019-.836c2.886-.286 5.785-.461 8.682-.608a2.194 2.194 0 0 1 2.371 2.19C73.8 27.058 72.7 33.2 69.519 38.821a30.651 30.651 0 0 1-19.586 14.945 52.793 52.793 0 0 1-18.359 1.346 38.507 38.507 0 0 1-13.456-3.418C8.743 47.193 3.085 39.731.883 29.624c-.392-1.8-.511-3.654-.76-5.483-.029-.212-.082-.42-.123-.63zM36.885 5.166a36.581 36.581 0 0 0-10.9 12.3c-3.345 6.444-4.032 13.102-1.168 19.904 2.373 5.63 6.592 9.643 11.717 12.781a.958.958 0 0 0 .82-.06 30.651 30.651 0 0 0 8.283-7.17 22.046 22.046 0 0 0 4.826-17.433 26.3 26.3 0 0 0-4.677-11.326 39.253 39.253 0 0 0-8.9-9" class="cls-1"/>
    </g>
</svg>
