<svg xmlns="http://www.w3.org/2000/svg" width="79.588" height="56.984" viewBox="0 0 79.588 56.984">
    <defs>
        <clipPath id="clip-path">
            <path id="Rectangle_1156" d="M0 0H79.588V56.984H0z" class="cls-1"/>
        </clipPath>
        <style>
            .cls-1{fill:#f8b28e}
        </style>
    </defs>
    <g id="Group_2199" clip-path="url(#clip-path)">
        <path id="Path_3200" d="M0 139.5c7.567-2.128 15.14-4.236 22.691-6.417a4.6 4.6 0 0 0 2.034-1.351c2.518-2.852 4.958-5.773 7.424-8.672.3-.352.585-.717.925-1.136l8.772 11.622a29.874 29.874 0 0 0-2.544 3.459 10.267 10.267 0 0 0-.895 8.256c.565 1.756 1.73 3.014 4.027 2.674a18.167 18.167 0 0 1 8.233.44 10.575 10.575 0 0 1 6.318 5.408c.7 1.345.374 2.045-1.053 2.592a21.066 21.066 0 0 1-6.709 1.14c-3.906.169-7.818.2-11.726.331-1.887.062-3.774.19-5.658.332a8.03 8.03 0 0 1-6.6-2.3 2.386 2.386 0 0 0-2.8-.564c-4.673 1.515-9.385 2.909-14.084 4.345-.294.09-.593.16-.967.261-.66-1.825-1.309-3.617-1.956-5.41Q2.866 147.39.3 140.276a6.542 6.542 0 0 0-.3-.619z" class="cls-1" transform="translate(0 -102.931)"/>
        <path id="Path_3201" d="M255.951 93.252c1.429.114 2.874.134 4.285.359a139.793 139.793 0 0 0 16.164 2.037 49.258 49.258 0 0 0 11.586-.946c1.9-.374 3.785-.848 5.665-1.322a.809.809 0 0 1 1.016.38 3.981 3.981 0 0 1-.393 5.554 14.058 14.058 0 0 1-4.911 3.055 52.669 52.669 0 0 1-12.5 3.3c-.2.03-.393.09-.757.176a29.715 29.715 0 0 0 1.27 3.842q3.131 6.453 6.45 12.814c.928 1.777.307 3.084-1.742 3.035a9.524 9.524 0 0 1-8-4.491c-2.39-3.571-4.629-7.242-7-10.823-3.546-5.347-7.153-10.653-10.733-15.977-.159-.236-.307-.479-.46-.718l.056-.272" class="cls-1" transform="translate(-216.028 -78.724)"/>
        <path id="Path_3202" d="M183.906 50.381l-4.145-5.5q-12.453-16.545-24.891-33.1a1.167 1.167 0 0 0-1.39-.556 5.494 5.494 0 0 1-6.537-4.925 5.53 5.53 0 0 1 5.1-6.293 5.6 5.6 0 0 1 5.477 2.849 5.1 5.1 0 0 1-.193 5.778c-.291.438-.119.695.1 1.029q4.542 6.917 9.073 13.837l17.288 26.376c.083.127.158.259.237.389l-.12.116" class="cls-1" transform="translate(-124.01)"/>
    </g>
</svg>
