<svg xmlns="http://www.w3.org/2000/svg" width="20.011" height="19.123" viewBox="0 0 20.011 19.123">
    <path fill="#f1737f" d="M563.59-124.171h-4.29v-12.9h4.289zm-2.145-14.664h-.027a2.223 2.223 0 0 1-2.372-2.23 2.239 2.239 0 0 1 2.428-2.229 2.227 2.227 0 0 1 2.4 2.229 2.237 2.237 0 0 1-2.429 2.23zm17.612 14.664h-4.289v-6.9c0-1.734-.62-2.918-2.172-2.918a2.348 2.348 0 0 0-2.2 1.568 2.947 2.947 0 0 0-.142 1.046v7.206h-4.292s.058-11.693 0-12.9h4.292v1.828a4.26 4.26 0 0 1 3.866-2.13c2.823 0 4.939 1.843 4.939 5.806z" transform="translate(-559.046 143.294)"/>
</svg>
