<svg xmlns="http://www.w3.org/2000/svg" width="21.138" height="17.181" viewBox="0 0 21.138 17.181">
    <path fill="#f1737f" d="M175.356-131.094c.008.186.012.373.012.561a12.254 12.254 0 0 1-12.339 12.34 12.264 12.264 0 0 1-6.647-1.95 8.745 8.745 0 0 0 1.034.061 8.7 8.7 0 0 0 5.386-1.856 4.342 4.342 0 0 1-4.052-3.011 4.455 4.455 0 0 0 .816.078 4.313 4.313 0 0 0 1.143-.153 4.34 4.34 0 0 1-3.479-4.252v-.054a4.314 4.314 0 0 0 1.964.542 4.335 4.335 0 0 1-1.929-3.609 4.313 4.313 0 0 1 .588-2.181 12.313 12.313 0 0 0 8.938 4.532 4.391 4.391 0 0 1-.113-.989 4.338 4.338 0 0 1 4.337-4.337 4.334 4.334 0 0 1 3.167 1.37 8.639 8.639 0 0 0 2.751-1.052 4.34 4.34 0 0 1-1.9 2.4 8.612 8.612 0 0 0 2.491-.682 8.783 8.783 0 0 1-2.168 2.242z" transform="translate(-156.382 135.373)"/>
</svg>
