<svg xmlns="http://www.w3.org/2000/svg" id="Group_2347" width="33.559" height="33.578" viewBox="0 0 33.559 33.578">
    <defs>
        <clipPath id="clip-path">
            <path id="Rectangle_1209" d="M0 0H33.559V33.578H0z" class="cls-1"/>
        </clipPath>
        <style>
            .cls-1{fill:#f8b28e}
        </style>
    </defs>
    <g id="Group_2313" clip-path="url(#clip-path)">
        <path id="Path_3262" d="M3.048 27.048c.181 2.193.787 3.04 2.16 3.066 1.34.026 1.924-.775 2.224-3.1H19.92c0 .327-.012.654 0 .98a2.106 2.106 0 1 0 4.211 0c.016-.31 0-.621 0-.918 1.685-.4 3.066.459 3.111 2.046.078 2.726.021 5.457.021 8.249h-2.04v-4.063H2.1c-.015.251-.043.5-.043.754 0 4.346.013 8.691-.017 13.037-.005.7.206.873.884.867 3.591-.032 7.182-.015 10.773-.015h.919v2.04c-.246.014-.519.042-.792.043H2.661A2.333 2.333 0 0 1 0 47.409V29.532c0-1.84 1.157-2.788 3.044-2.484" class="cls-1" transform="translate(0 -22.772)"/>
        <path id="Path_3263" d="M107.755 115.977a8.364 8.364 0 1 1 8.251 8.435 8.332 8.332 0 0 1-8.251-8.435m8.375-6.271a6.33 6.33 0 0 0 0 12.66 6.33 6.33 0 0 0 0-12.66" class="cls-1" transform="translate(-90.924 -90.835)"/>
        <path id="Rectangle_1204" d="M0 0H4.107V4.056H0z" class="cls-1" transform="translate(10.526 18.97)"/>
        <path id="Rectangle_1205" d="M0 0H4.055V4.068H0z" class="cls-1" transform="translate(4.25 18.943)"/>
        <path id="Rectangle_1206" d="M0 0H4.073V4.043H0z" class="cls-1" transform="translate(4.247 12.657)"/>
        <path id="Rectangle_1207" d="M0 0H4.11V4.033H0z" class="cls-1" transform="translate(10.52 12.664)"/>
        <path id="Rectangle_1208" d="M0 0H4.053V4.023H0z" class="cls-1" transform="translate(16.869 12.677)"/>
        <path id="Path_3264" d="M28.924 3.186c0 .65.016 1.3 0 1.949-.022.709-.422 1.129-1.04 1.09a.965.965 0 0 1-1-1.062c-.008-1.351-.017-2.7 0-4.054A1.012 1.012 0 0 1 27.931 0a.982.982 0 0 1 .988 1.079c.017.7 0 1.4 0 2.105" class="cls-1" transform="translate(-22.677)"/>
        <path id="Path_3265" d="M136.593 3.152c0 .65.005 1.3 0 1.951a1.008 1.008 0 0 1-1.016 1.138c-.617.039-1.026-.377-1.039-1.095-.023-1.326-.012-2.653 0-3.979 0-.66.293-1.11 1-1.149.62-.034 1.036.436 1.059 1.184.02.65 0 1.3 0 1.95" class="cls-1" transform="translate(-113.512 -.013)"/>
        <path id="Path_3266" d="M150 138.6h2.405a6.792 6.792 0 0 1 .78.01 1 1 0 0 1 1 1.072.923.923 0 0 1-.992.982c-1.4.032-2.808.036-4.211 0a.987.987 0 0 1-1.027-1.121c0-1.326-.014-2.652 0-3.978a1.024 1.024 0 1 1 2.032 0c.02.98.005 1.962.005 3.039" class="cls-1" transform="translate(-124.845 -113.419)"/>
    </g>
</svg>
