<svg xmlns="http://www.w3.org/2000/svg" id="Group_2322" width="21.648" height="25.833" viewBox="0 0 21.648 25.833">
    <defs>
        <clipPath id="clip-path">
            <path id="Rectangle_1213" d="M0 0H21.648V25.833H0z" class="cls-1"/>
        </clipPath>
        <style>
            .cls-1{fill:#f8b28e}
        </style>
    </defs>
    <g id="Group_2321" clip-path="url(#clip-path)">
        <path id="Path_3273" d="M20.876 25.833H.778A1.548 1.548 0 0 1 0 24.307Q.02 13.95.008 3.594c0-.134-.006-.268 0-.4a1.117 1.117 0 0 1 1.225-1.15c1.243-.01 2.487 0 3.73 0h.646C5.589 1.191 5.518.392 6.405 0h8.958c.81.444.719 1.25.736 2.039h4.125c1.038 0 1.416.379 1.416 1.424q0 10.475.007 20.951a1.453 1.453 0 0 1-.772 1.418m-4.8-21.58c0 .316.009.563 0 .808a1.058 1.058 0 0 1-1.115 1.127q-4.1.02-8.206 0a1.1 1.1 0 0 1-1.14-1.124c-.017-.26 0-.522 0-.794H2.2v19.386h17.249V4.253zm-8.241-.229h6.093v-1.8H7.834z" class="cls-1"/>
        <path id="Path_3274" d="M56.815 170.272c-1.244 0-2.488.006-3.732 0-.79 0-1.267-.432-1.259-1.1s.489-1.086 1.28-1.087q3.761-.007 7.521 0a1.129 1.129 0 0 1 1.275 1.035 1.184 1.184 0 0 1-1.3 1.151c-1.263.007-2.526 0-3.789 0" class="cls-1" transform="translate(-45.873 -148.781)"/>
        <path id="Path_3275" d="M55.461 131.888h3.725c.83 0 1.317.421 1.306 1.1-.011.668-.484 1.081-1.278 1.082q-3.754.008-7.507 0c-.785 0-1.271-.424-1.279-1.083-.008-.68.483-1.1 1.308-1.1h3.725" class="cls-1" transform="translate(-44.638 -116.744)"/>
        <path id="Path_3276" d="M72.151 70.913c-1.22-.131-1.64-.432-1.64-1.148 0-.691.372-.954 1.6-1.134.289-1.332.555-1.685 1.239-1.644.663.039.918.419 1.067 1.5a11.115 11.115 0 0 1 1.433.67c.155.1.21.445.21.679 0 .667-.45.955-1.6 1.084-.313 1.351-.562 1.681-1.239 1.639s-.956-.444-1.075-1.643" class="cls-1" transform="translate(-62.415 -59.293)"/>
    </g>
</svg>
