<svg xmlns="http://www.w3.org/2000/svg" id="Group_2316" width="21.084" height="28.401" viewBox="0 0 21.084 28.401">
    <defs>
        <clipPath id="clip-path">
            <path id="Rectangle_1210" d="M0 0H21.084V28.401H0z" class="cls-1"/>
        </clipPath>
        <style>
            .cls-1{fill:#f8b28e}
        </style>
    </defs>
    <g id="Group_2315" clip-path="url(#clip-path)">
        <path id="Path_3267" d="M21.083 28.4H0v-3.055h1.434a4 4 0 0 0 .031-.554 6.921 6.921 0 0 1 .9-3.94c1.084-2.038 2.21-4.055 3.359-6.057a1.01 1.01 0 0 0-.006-1.18C4.638 11.763 3.578 9.9 2.574 8.01a7.94 7.94 0 0 1-1.111-4.525 2.186 2.186 0 0 0-.07-.471H0V0h21.083v3.06h-1.435a3.581 3.581 0 0 0-.03.492 7.061 7.061 0 0 1-.915 4c-1.072 2-2.17 3.985-3.316 5.942a1.189 1.189 0 0 0 .007 1.4q1.774 3.085 3.434 6.236a6.538 6.538 0 0 1 .786 3.59 5.538 5.538 0 0 0 .034.662h1.435zM3.019 3.075a5.25 5.25 0 0 0 .458 3.193c1.123 2.092 2.186 4.22 3.4 6.258a2.886 2.886 0 0 1 0 3.354C5.652 17.91 4.6 20.043 3.47 22.133a5.336 5.336 0 0 0-.455 3.195h15.042a5.083 5.083 0 0 0-.447-3.15c-1.042-1.945-2.106-3.877-3.146-5.823-1.345-2.518-1.343-1.809.027-4.366 1.071-2 2.152-3.994 3.219-6a5.024 5.024 0 0 0 .356-2.918z" class="cls-1" transform="translate(.001 -.001)"/>
        <path id="Path_3268" d="M40.918 45.487h10.7a6.022 6.022 0 0 1-.235 1.37 21.918 21.918 0 0 1-4.12 6.224 1.5 1.5 0 0 1-1.92.021 19.8 19.8 0 0 1-4.043-5.966 10.632 10.632 0 0 1-.381-1.649" class="cls-1" transform="translate(-35.753 -39.745)"/>
    </g>
</svg>
