<svg xmlns="http://www.w3.org/2000/svg" id="Group_2318" width="29.731" height="28.401" viewBox="0 0 29.731 28.401">
    <defs>
        <clipPath id="clip-path">
            <path id="Rectangle_1211" d="M0 0H29.731V28.401H0z" class="cls-1"/>
        </clipPath>
        <style>
            .cls-1{fill:#f8b28e}
        </style>
    </defs>
    <g id="Group_2317" clip-path="url(#clip-path)">
        <path id="Path_3269" d="M3.363 28.374c.428-.66.878-1.305 1.277-1.981a9.129 9.129 0 0 0 1.105-2.932.391.391 0 0 0-.19-.461 12.515 12.515 0 0 1-5.192-7.316A11.229 11.229 0 0 1 2.7 5.544a14.513 14.513 0 0 1 8.491-5.12 16.222 16.222 0 0 1 11.43 1.51 12.732 12.732 0 0 1 6.6 7.752 11.19 11.19 0 0 1-2.331 10.8 14.815 14.815 0 0 1-9.3 5.146 16.508 16.508 0 0 1-6.108-.12.437.437 0 0 0-.445.131 9.119 9.119 0 0 1-5.445 2.72 20.049 20.049 0 0 1-2.229.013m9.889-11.569c.956 0 1.912.007 2.868 0a1.273 1.273 0 0 0 1.323-1.336q.008-2.537 0-5.075a1.264 1.264 0 0 0-1.271-1.328q-2.931-.026-5.862 0a1.252 1.252 0 0 0-1.255 1.306q-.007 2.537 0 5.075a1.274 1.274 0 0 0 1.361 1.351h2.836m8.7-7.111a2.746 2.746 0 0 0-.273.1c-.923.473-1.847.944-2.763 1.432a.42.42 0 0 0-.178.31c-.014.923 0 1.847-.013 2.77a.348.348 0 0 0 .219.365c.917.462 1.826.938 2.74 1.408a2.489 2.489 0 0 0 .268.1z" class="cls-1"/>
    </g>
</svg>
