<svg xmlns="http://www.w3.org/2000/svg" id="Group_2251" width="61.613" height="70.665" viewBox="0 0 61.613 70.665">
    <defs>
        <style>
            .cls-1{fill:#f8b28e}
        </style>
    </defs>
    <g id="Group_2191">
        <path id="Path_3191" d="M11.746 42.788h-3.76s-.019-.071 0-.085c3.075-2.093 4.418-5.261 5.32-8.673a33.224 33.224 0 0 0 1.091-9.4 39.431 39.431 0 0 1 1.213-11.994c1.192-4.164 3.225-7.771 6.942-10.22A15.125 15.125 0 0 1 44.6 8.955 30.829 30.829 0 0 1 47.2 21.3c.1 2.907.109 5.821.33 8.718a22.961 22.961 0 0 0 1.745 7.031 12.631 12.631 0 0 0 4.266 5.711l-5.474-.824-.038.114c.179.079.356.163.537.235a20.365 20.365 0 0 1 13.026 20.078 12.673 12.673 0 0 1-.358 2.419c-.823 3.394-3.2 5.137-6.485 5.5a85.32 85.32 0 0 1-8.863.338q-16.7.073-33.408.043a38.693 38.693 0 0 1-5.493-.344c-4.52-.662-6.853-3.282-6.976-7.891-.23-8.683 3.554-15.1 11.136-19.3l.6-.337m5.549-19.645c.119.839.2 1.569.329 2.291a21.882 21.882 0 0 0 4.927 10.87c4.706 5.362 11.6 5.461 16.324.124a23.01 23.01 0 0 0 3.07-4.631 24.483 24.483 0 0 0 2.4-9.353c.189-2.2.3-1.647-1.538-1.945-1.211-.2-2.433-.325-3.73-.495 1.741-1.729 1.739-4.166.054-6.177-6.566 4.694-13.641 8.249-21.834 9.316m3.631 13.779c-.311.021-.538.023-.762.053a9.45 9.45 0 0 0-7.622 6.783 4.426 4.426 0 0 1-1.828 2.381 16.285 16.285 0 0 0-3.669 3.738c-.949 1.294-1.022 2.832-1.48 4.263a17.1 17.1 0 0 0-.68 7.71A2.794 2.794 0 0 0 6.072 64a6.641 6.641 0 0 0 4.546.88 1.233 1.233 0 0 0 1.048-1.383 1.211 1.211 0 0 0-1.2-1.161 13.944 13.944 0 0 0-2.294.031c-.77.1-1.084-.2-1.177-.914A14.864 14.864 0 0 1 7.8 54.3a1.726 1.726 0 0 1 .287-.431c.306-.394.63-.774.928-1.174a28.586 28.586 0 0 1 2.421-3.215c1.292-1.3 2.609-1.221 4.022-.037a3.786 3.786 0 0 1 .657.64 24.472 24.472 0 0 1 2.637 3.8 13.593 13.593 0 0 1 .977 7.8.736.736 0 0 1-.906.695c-.71-.059-1.428-.049-2.142-.046a1.325 1.325 0 0 0-1.481 1.28 1.359 1.359 0 0 0 1.493 1.309 7.646 7.646 0 0 0 2.983-.4 3.271 3.271 0 0 0 2.223-2.654c.694-3.561-.5-6.918-1.265-10.273a8.707 8.707 0 0 0-3.492-4.733 10.313 10.313 0 0 1-2.118-1.8 1.066 1.066 0 0 1-.217-1.31 11.237 11.237 0 0 1 .635-1.219 7.062 7.062 0 0 1 5.49-3.492zm1.311 2.26l2.283 5.143a11.258 11.258 0 0 0-5.49-1.35 9.345 9.345 0 0 0 1.484 1.709 11.745 11.745 0 0 0 4.851 2.338 1.731 1.731 0 0 1 1.153.876c1.247 2.078 2.53 4.135 3.8 6.2.138.224.291.439.5.746 1.446-2.353 2.837-4.579 4.182-6.832a2.131 2.131 0 0 1 1.393-1.029 10.46 10.46 0 0 0 5.706-3.348 15 15 0 0 0 1.156-2.088c-2.021.038-3.778-.047-5.539.872l1.4-2.986c-5.919 5.071-12.4 3.871-16.883-.255m22.711 5.6c-.23.087-.393.15-.557.21a4.706 4.706 0 1 0 6.091 5.429 4.656 4.656 0 0 0-2.788-5.3.977.977 0 0 1-.658-.813 9.287 9.287 0 0 0-3.551-5.808 21.152 21.152 0 0 0-2.475-1.362l-.681 2.124c2.682.911 3.953 2.936 4.619 5.521" class="cls-1" transform="translate(0 -.001)"/>
        <path id="Path_3192" d="M285.8 311.366a2.347 2.347 0 1 1 .017-4.693 2.347 2.347 0 1 1-.017 4.693" class="cls-1" transform="translate(-239.924 -259.579)"/>
    </g>
</svg>
