<svg xmlns="http://www.w3.org/2000/svg" id="profile_pic" width="19.591" height="19.59" viewBox="0 0 19.591 19.59">
    <defs>
        <style>
            .cls-1{fill:#f1737f}
        </style>
    </defs>
    <g id="Group_499">
        <g id="Group_496">
            <path id="Path_506" d="M-18.159-119.212a5.068 5.068 0 0 0-5.063 5.062 5.068 5.068 0 0 0 5.063 5.063 5.068 5.068 0 0 0 5.059-5.063 5.068 5.068 0 0 0-5.059-5.062zm0 8.176a3.116 3.116 0 0 1-3.113-3.113 3.118 3.118 0 0 1 3.113-3.113 3.118 3.118 0 0 1 3.114 3.113 3.116 3.116 0 0 1-3.114 3.113z" class="cls-1" transform="translate(27.954 124.003)"/>
            <path id="Path_507" d="M-23.194-134.524h-10.719a4.441 4.441 0 0 0-4.435 4.437v10.717a4.441 4.441 0 0 0 4.435 4.436h10.719a4.443 4.443 0 0 0 4.437-4.436v-10.717a4.443 4.443 0 0 0-4.437-4.437zm2.485 15.154a2.489 2.489 0 0 1-2.485 2.487h-10.719a2.489 2.489 0 0 1-2.487-2.487v-10.717a2.488 2.488 0 0 1 2.485-2.485h10.719a2.489 2.489 0 0 1 2.485 2.485z" class="cls-1" transform="translate(38.348 134.524)"/>
            <path id="Path_508" d="M6.937-123.195a1.284 1.284 0 0 0-1.284 1.286 1.285 1.285 0 0 0 1.284 1.284 1.287 1.287 0 0 0 1.287-1.284 1.286 1.286 0 0 0-1.287-1.286z" class="cls-1" transform="translate(8.114 126.739)"/>
        </g>
    </g>
</svg>
