<svg xmlns="http://www.w3.org/2000/svg" width="20.201" height="23.994" viewBox="0 0 20.201 23.994">
    <path fill="#e6e2ef" stroke="rgba(0,0,0,0)" stroke-miterlimit="10" d="M7.662 22.994C2.578 22.994 0 20.243 0 14.819v-1.635c0-2.652.153-4.258.959-5.142a3.685 3.685 0 0 1 2.45-.975c-.009-.23-.009-.474-.009-.733V5.278C3.4 1.776 5.066 0 8.349 0h2.5a4.863 4.863 0 0 1 3.707 1.325A5.619 5.619 0 0 1 15.8 5.278v1.056q0 .389-.008.732a3.685 3.685 0 0 1 2.455.976 3.561 3.561 0 0 1 .776 1.881 20.541 20.541 0 0 1 .179 3.261v1.635a12.007 12.007 0 0 1-.481 3.567 6.567 6.567 0 0 1-1.44 2.555 6 6 0 0 1-2.4 1.538 9.969 9.969 0 0 1-3.346.514zm-.4-9.06v.137A2.074 2.074 0 0 0 8.158 16v.66a1.265 1.265 0 0 0 1.451 1.4 1.265 1.265 0 0 0 1.45-1.4V16a2.075 2.075 0 0 0 .893-1.93v-.137a2.043 2.043 0 0 0-2.343-2.265 2.043 2.043 0 0 0-2.344 2.265zm5.263-6.962a6.7 6.7 0 0 0 .052-.985v-.508c0-1.683-.8-2.536-2.377-2.536H9c-1.577 0-2.377.853-2.377 2.536v.507a6.582 6.582 0 0 0 .053.985z" transform="translate(.5 .5)"/>
</svg>
