<svg xmlns="http://www.w3.org/2000/svg" width="200.712" height="40.456" viewBox="0 0 200.712 40.456">
    <path fill="#fff" d="M191.524 32.255V15.933a9.157 9.157 0 0 0-1.3-4.643 10.665 10.665 0 0 0-3.467-3.647 9.036 9.036 0 0 0-9.692 0 10.265 10.265 0 0 0-3.426 3.647 9.378 9.378 0 0 0-1.253 4.643v8.455a9.756 9.756 0 0 0 1.253 4.767 10.148 10.148 0 0 0 3.426 3.689 9.06 9.06 0 0 0 8.032.833l.179-.064a2.085 2.085 0 0 1 1.807.3 3.268 3.268 0 0 1 1.427 1.787 3.444 3.444 0 0 1 .038 2.327 2.09 2.09 0 0 1-1.2 1.423l-.179.064a15.468 15.468 0 0 1-5.259.926 15.23 15.23 0 0 1-8.1-2.276 17.7 17.7 0 0 1-5.954-5.917 14.766 14.766 0 0 1-2.233-7.861V15.94a14.766 14.766 0 0 1 2.192-7.821 17.1 17.1 0 0 1 5.912-5.835 16.092 16.092 0 0 1 16.289-.041A17.638 17.638 0 0 1 196.014 8a14.45 14.45 0 0 1 2.273 7.945V32.32s-.211 4.279 1.789 6.417c.669.654 1.305 1.72-.855 1.72-3.221-.18-7.64-1.628-7.697-8.202zm-58.084 7.153a15.5 15.5 0 0 1-4.807-2.445 3.821 3.821 0 0 1-1.741-2.817 3.2 3.2 0 0 1 .331-1.367 4.374 4.374 0 0 1 .87-1.243A1.664 1.664 0 0 1 129.3 31a3.512 3.512 0 0 1 2.155.953A16.981 16.981 0 0 0 134.6 33.9a13.119 13.119 0 0 0 5.72.994q4.393 0 6.134-1.616a4.837 4.837 0 0 0 1.74-3.6 5.074 5.074 0 0 0-1.492-3.937 10.629 10.629 0 0 0-3.813-2.155q-2.322-.786-4.891-1.533a31.335 31.335 0 0 1-4.891-1.864 9.734 9.734 0 0 1-3.772-3.149 9.151 9.151 0 0 1-1.451-5.429 11.932 11.932 0 0 1 1.326-5.387 10.863 10.863 0 0 1 4.311-4.434 15.442 15.442 0 0 1 7.96-1.79 24.806 24.806 0 0 1 5.595.622 14.931 14.931 0 0 1 4.393 1.658q1.7 1.037 1.7 2.2a3.838 3.838 0 0 1-.332 1.327 5.16 5.16 0 0 1-.912 1.491 1.89 1.89 0 0 1-1.492.663 4.5 4.5 0 0 1-1.865-.622 21.561 21.561 0 0 0-2.9-1.2 12.79 12.79 0 0 0-4.1-.58 8.787 8.787 0 0 0-4.393.954 6.317 6.317 0 0 0-2.4 2.238 5.151 5.151 0 0 0-.746 2.61 3.905 3.905 0 0 0 1.45 3.233 11.12 11.12 0 0 0 3.813 1.864q2.363.705 4.933 1.409a22.193 22.193 0 0 1 4.891 1.989 10.854 10.854 0 0 1 3.813 3.522 10.607 10.607 0 0 1 1.492 5.967 9.964 9.964 0 0 1-3.647 8.08q-3.648 3.027-10.278 3.025a21.989 21.989 0 0 1-7.056-1.042zm-37.962 0a15.517 15.517 0 0 1-4.808-2.445 3.821 3.821 0 0 1-1.74-2.817 3.2 3.2 0 0 1 .331-1.367 4.374 4.374 0 0 1 .87-1.243 1.663 1.663 0 0 1 1.2-.538 3.515 3.515 0 0 1 2.155.953 16.982 16.982 0 0 0 3.15 1.948 13.119 13.119 0 0 0 5.72.994q4.392 0 6.133-1.616a4.835 4.835 0 0 0 1.741-3.6 5.074 5.074 0 0 0-1.491-3.937 10.626 10.626 0 0 0-3.814-2.155q-2.321-.786-4.89-1.533a31.307 31.307 0 0 1-4.891-1.864 9.734 9.734 0 0 1-3.772-3.149 9.152 9.152 0 0 1-1.448-5.439 11.932 11.932 0 0 1 1.326-5.387 10.861 10.861 0 0 1 4.31-4.434A15.445 15.445 0 0 1 103.518 0a24.806 24.806 0 0 1 5.595.622 14.932 14.932 0 0 1 4.393 1.658q1.7 1.037 1.7 2.2a3.839 3.839 0 0 1-.332 1.327 5.16 5.16 0 0 1-.912 1.491 1.891 1.891 0 0 1-1.492.663 4.5 4.5 0 0 1-1.865-.622 21.559 21.559 0 0 0-2.9-1.2 12.79 12.79 0 0 0-4.1-.58 8.785 8.785 0 0 0-4.393.954 6.316 6.316 0 0 0-2.4 2.238 5.151 5.151 0 0 0-.746 2.61 3.905 3.905 0 0 0 1.45 3.233 11.12 11.12 0 0 0 3.813 1.864q2.362.705 4.932 1.409a22.164 22.164 0 0 1 4.891 1.989 10.842 10.842 0 0 1 3.813 3.522 10.6 10.6 0 0 1 1.492 5.967 9.964 9.964 0 0 1-3.647 8.08q-3.648 3.027-10.278 3.025a21.989 21.989 0 0 1-7.054-1.042zm-40.513-1a16.312 16.312 0 0 1-6.56-5.627 14.741 14.741 0 0 1-2.405-8.4v-8.69a14.115 14.115 0 0 1 2.284-7.78A17.305 17.305 0 0 1 54.3 2.2a16.8 16.8 0 0 1 16.151-.165 16 16 0 0 1 5.812 5.379 14.135 14.135 0 0 1 2.2 7.862 8.111 8.111 0 0 1-1.08 4.759 4.408 4.408 0 0 1-2.74 1.779 18.253 18.253 0 0 1-3.524.264H52.954v2.705a8.569 8.569 0 0 0 3.256 7.169 13.155 13.155 0 0 0 8.553 2.689 12.043 12.043 0 0 0 4.9-.828 20.374 20.374 0 0 0 2.99-1.614 3.845 3.845 0 0 1 2.076-.786 2.268 2.268 0 0 1 1.536.538 3.641 3.641 0 0 1 .955 1.283 3.334 3.334 0 0 1 .332 1.324A3.646 3.646 0 0 1 75.973 37a14.008 14.008 0 0 1-4.525 2.4 20.972 20.972 0 0 1-6.934 1.035 21.48 21.48 0 0 1-9.549-2.026zm2.786-31.749a9.609 9.609 0 0 0-3.474 3.264 8.25 8.25 0 0 0-1.323 4.544v2.975h15.3a5.341 5.341 0 0 0 2.936-.537 2.545 2.545 0 0 0 .7-2.107 9.12 9.12 0 0 0-1.2-4.585 9.5 9.5 0 0 0-3.35-3.429 9.137 9.137 0 0 0-4.88-1.322 9.528 9.528 0 0 0-4.709 1.197zM26.873 39.73a2.024 2.024 0 0 1-1.075-1.7V16.37a9.47 9.47 0 0 0-1.24-4.647 10.238 10.238 0 0 0-3.39-3.651 8.551 8.551 0 0 0-4.8-1.411 8.543 8.543 0 0 0-4.8 1.411 10.591 10.591 0 0 0-3.432 3.651 9.228 9.228 0 0 0-1.273 4.647v21.576a2.208 2.208 0 0 1-.992 1.7 3.739 3.739 0 0 1-2.4.788 3.906 3.906 0 0 1-2.439-.788A2.186 2.186 0 0 1 0 37.946V16.37a14.7 14.7 0 0 1 2.232-7.8 17.365 17.365 0 0 1 5.954-5.893 15.724 15.724 0 0 1 8.268-2.24 15.428 15.428 0 0 1 8.1 2.241 17.139 17.139 0 0 1 5.916 5.85 14.843 14.843 0 0 1 2.192 7.842v21.66a2.1 2.1 0 0 1-.91 1.7 3.958 3.958 0 0 1-2.481.706 4.28 4.28 0 0 1-2.398-.706z"/>
</svg>
