<svg xmlns="http://www.w3.org/2000/svg" width="26.956" height="26.956" viewBox="0 0 26.956 26.956">
    <path fill="#f1737f" d="M24.3 21.511h-.007a1.053 1.053 0 1 1-1.644-1.31 11.372 11.372 0 1 0-18.337 0 1.053 1.053 0 1 1-1.644 1.31h-.007A13.474 13.474 0 0 1 13.478 0 13.474 13.474 0 0 1 24.3 21.511zM8.108 9.9a5.37 5.37 0 1 1 5.37 5.37 5.37 5.37 0 0 1-5.37-5.37zm8.634 0a3.264 3.264 0 1 0-3.264 3.264A3.264 3.264 0 0 0 16.742 9.9zm-3.317 6.846h.105a7.949 7.949 0 0 1 7.826 6.554 1.46 1.46 0 0 1-.856 1.684 13.416 13.416 0 0 1-1.2.655 13.422 13.422 0 0 1-5.817 1.318 13.422 13.422 0 0 1-5.817-1.318 13.415 13.415 0 0 1-1.2-.655A1.46 1.46 0 0 1 5.6 23.3a7.949 7.949 0 0 1 7.826-6.556zm.053 8.107A11.307 11.307 0 0 0 19.2 23.3a5.843 5.843 0 0 0-5.674-4.451h-.106A5.843 5.843 0 0 0 7.751 23.3a11.307 11.307 0 0 0 5.727 1.551z"/>
</svg>
